{
	"patcher" : 	{
		"fileversion" : 1,
		"appversion" : 		{
			"major" : 9,
			"minor" : 0,
			"revision" : 5,
			"architecture" : "x64",
			"modernui" : 1
		}
,
		"classnamespace" : "box",
		"rect" : [ 34.0, 100.0, 1032.0, 822.0 ],
		"gridsize" : [ 15.0, 15.0 ],
		"showontab" : 1,
		"boxes" : [ 			{
				"box" : 				{
					"fontname" : "Arial",
					"fontsize" : 11.0,
					"id" : "obj-2",
					"maxclass" : "newobj",
					"numinlets" : 0,
					"numoutlets" : 0,
					"patcher" : 					{
						"fileversion" : 1,
						"appversion" : 						{
							"major" : 9,
							"minor" : 0,
							"revision" : 5,
							"architecture" : "x64",
							"modernui" : 1
						}
,
						"classnamespace" : "box",
						"rect" : [ 0.0, 26.0, 1032.0, 796.0 ],
						"default_fontsize" : 11.0,
						"gridsize" : [ 15.0, 15.0 ],
						"showontab" : 1,
						"boxes" : [  ],
						"lines" : [  ],
						"originid" : "pat-31"
					}
,
					"patching_rect" : [ 505.0, 27.0, 78.0, 21.0 ],
					"saved_object_attributes" : 					{
						"fontsize" : 11.0
					}
,
					"text" : "p \"from buffer\""
				}

			}
, 			{
				"box" : 				{
					"fontname" : "Arial",
					"fontsize" : 11.0,
					"id" : "obj-3",
					"maxclass" : "newobj",
					"numinlets" : 0,
					"numoutlets" : 0,
					"patcher" : 					{
						"fileversion" : 1,
						"appversion" : 						{
							"major" : 9,
							"minor" : 0,
							"revision" : 5,
							"architecture" : "x64",
							"modernui" : 1
						}
,
						"classnamespace" : "box",
						"rect" : [ 0.0, 26.0, 1032.0, 796.0 ],
						"default_fontsize" : 11.0,
						"gridsize" : [ 15.0, 15.0 ],
						"showontab" : 1,
						"boxes" : [  ],
						"lines" : [  ],
						"originid" : "pat-33"
					}
,
					"patching_rect" : [ 412.0, 27.0, 72.0, 21.0 ],
					"saved_object_attributes" : 					{
						"fontsize" : 11.0
					}
,
					"text" : "p preprocess"
				}

			}
, 			{
				"box" : 				{
					"fontname" : "Arial",
					"fontsize" : 11.0,
					"id" : "obj-8",
					"maxclass" : "newobj",
					"numinlets" : 0,
					"numoutlets" : 0,
					"patcher" : 					{
						"fileversion" : 1,
						"appversion" : 						{
							"major" : 9,
							"minor" : 0,
							"revision" : 5,
							"architecture" : "x64",
							"modernui" : 1
						}
,
						"classnamespace" : "box",
						"rect" : [ 0.0, 26.0, 1032.0, 796.0 ],
						"default_fontsize" : 11.0,
						"gridsize" : [ 15.0, 15.0 ],
						"showontab" : 1,
						"boxes" : [  ],
						"lines" : [  ],
						"originid" : "pat-35"
					}
,
					"patching_rect" : [ 334.0, 27.0, 43.0, 21.0 ],
					"saved_object_attributes" : 					{
						"fontsize" : 11.0
					}
,
					"text" : "p basic"
				}

			}
, 			{
				"box" : 				{
					"id" : "obj-60",
					"linecount" : 5,
					"maxclass" : "comment",
					"numinlets" : 1,
					"numoutlets" : 0,
					"patching_rect" : [ 823.0, 55.0, 150.0, 74.0 ],
					"text" : "TODO:\nfix this so it writes as the buffername\nand use max folder as default dir"
				}

			}
, 			{
				"box" : 				{
					"id" : "obj-58",
					"maxclass" : "message",
					"numinlets" : 2,
					"numoutlets" : 1,
					"outlettype" : [ "" ],
					"patching_rect" : [ 802.0, 263.0, 50.0, 22.0 ]
				}

			}
, 			{
				"box" : 				{
					"id" : "obj-56",
					"maxclass" : "newobj",
					"numinlets" : 1,
					"numoutlets" : 0,
					"patching_rect" : [ 684.0, 263.0, 91.0, 22.0 ],
					"text" : "print @popup 1"
				}

			}
, 			{
				"box" : 				{
					"id" : "obj-53",
					"linecount" : 5,
					"maxclass" : "comment",
					"numinlets" : 1,
					"numoutlets" : 0,
					"patching_rect" : [ 678.0, 304.0, 275.0, 74.0 ],
					"text" : "You can also pass in a buffer name.\n\nUnder the hood, it will write the buffer to a file before converting. You can specify the tmpfile path as well"
				}

			}
, 			{
				"box" : 				{
					"id" : "obj-52",
					"linecount" : 2,
					"maxclass" : "message",
					"numinlets" : 2,
					"numoutlets" : 1,
					"outlettype" : [ "" ],
					"patching_rect" : [ 684.0, 164.0, 319.0, 35.0 ],
					"text" : "tmpfile /Users/jamesstaub/Downloads/tempfile.wav, buffer mybuffer"
				}

			}
, 			{
				"box" : 				{
					"id" : "obj-48",
					"maxclass" : "newobj",
					"numinlets" : 1,
					"numoutlets" : 1,
					"outlettype" : [ "bang" ],
					"patching_rect" : [ 688.0, 46.0, 58.0, 22.0 ],
					"text" : "loadbang"
				}

			}
, 			{
				"box" : 				{
					"id" : "obj-47",
					"maxclass" : "message",
					"numinlets" : 2,
					"numoutlets" : 1,
					"outlettype" : [ "" ],
					"patching_rect" : [ 688.0, 74.5, 82.0, 22.0 ],
					"text" : "read jongly.aif"
				}

			}
, 			{
				"box" : 				{
					"id" : "obj-42",
					"maxclass" : "newobj",
					"numinlets" : 1,
					"numoutlets" : 2,
					"outlettype" : [ "float", "bang" ],
					"patching_rect" : [ 688.0, 107.0, 96.0, 22.0 ],
					"text" : "buffer~ mybuffer"
				}

			}
, 			{
				"box" : 				{
					"id" : "obj-39",
					"maxclass" : "newobj",
					"numinlets" : 1,
					"numoutlets" : 2,
					"outlettype" : [ "", "" ],
					"patching_rect" : [ 684.0, 225.0, 66.0, 22.0 ],
					"text" : "basic-pitch"
				}

			}
, 			{
				"box" : 				{
					"id" : "obj-36",
					"linecount" : 4,
					"maxclass" : "comment",
					"numinlets" : 1,
					"numoutlets" : 0,
					"patching_rect" : [ 394.0, 174.5, 133.0, 60.0 ],
					"text" : "Drop an aiff, mp3 or other format here to preprocess, then convert to midi  **"
				}

			}
, 			{
				"box" : 				{
					"id" : "obj-35",
					"maxclass" : "dropfile",
					"numinlets" : 1,
					"numoutlets" : 2,
					"outlettype" : [ "", "" ],
					"patching_rect" : [ 317.0, 121.0, 266.0, 154.0 ]
				}

			}
, 			{
				"box" : 				{
					"id" : "obj-33",
					"maxclass" : "message",
					"numinlets" : 2,
					"numoutlets" : 1,
					"outlettype" : [ "" ],
					"patching_rect" : [ 71.0, 293.0, 85.0, 22.0 ],
					"text" : "preprocess $1"
				}

			}
, 			{
				"box" : 				{
					"id" : "obj-32",
					"linecount" : 10,
					"maxclass" : "comment",
					"numinlets" : 1,
					"numoutlets" : 0,
					"patching_rect" : [ 321.0, 311.0, 275.0, 141.0 ],
					"text" : "**\nThe basic pitch CLI is fussy about audio file types and headers. If you are having trouble with an audio file try using \n\nThe preprocess message uses FFMPEG to convert the audio to a usable format. \n\non mac you'll need Homebrew and to run `brew install ffmpeg` for this to work"
				}

			}
, 			{
				"box" : 				{
					"fontname" : "Ableton Sans",
					"fontsize" : 16.0,
					"id" : "obj-30",
					"linecount" : 2,
					"maxclass" : "comment",
					"numinlets" : 1,
					"numoutlets" : 0,
					"patching_rect" : [ 4.5, 63.0, 255.0, 45.0 ],
					"text" : "Convert  audio file to midi using Spotify's BasicPitch model"
				}

			}
, 			{
				"box" : 				{
					"id" : "obj-25",
					"maxclass" : "newobj",
					"numinlets" : 1,
					"numoutlets" : 2,
					"outlettype" : [ "start", "" ],
					"patching_rect" : [ 11.0, 386.0, 45.0, 22.0 ],
					"text" : "t start l"
				}

			}
, 			{
				"box" : 				{
					"id" : "obj-11",
					"maxclass" : "message",
					"numinlets" : 2,
					"numoutlets" : 1,
					"outlettype" : [ "" ],
					"patching_rect" : [ 11.0, 293.0, 49.0, 22.0 ],
					"text" : "path $1"
				}

			}
, 			{
				"box" : 				{
					"border" : 0,
					"filename" : "helpdetails.js",
					"id" : "obj-6",
					"ignoreclick" : 1,
					"jsarguments" : [ "basic-pitch" ],
					"maxclass" : "jsui",
					"numinlets" : 1,
					"numoutlets" : 1,
					"outlettype" : [ "" ],
					"parameter_enable" : 0,
					"patching_rect" : [ 4.5, 6.0, 269.0, 102.0 ]
				}

			}
, 			{
				"box" : 				{
					"id" : "obj-4",
					"linecount" : 2,
					"maxclass" : "comment",
					"numinlets" : 1,
					"numoutlets" : 0,
					"patching_rect" : [ 82.0, 188.0, 133.0, 33.0 ],
					"text" : "Drop a wav file here to convert to midi"
				}

			}
, 			{
				"box" : 				{
					"id" : "obj-34",
					"maxclass" : "message",
					"numinlets" : 2,
					"numoutlets" : 1,
					"outlettype" : [ "" ],
					"patching_rect" : [ 123.0, 460.0, 39.0, 22.0 ],
					"text" : "stop"
				}

			}
, 			{
				"box" : 				{
					"id" : "obj-5",
					"maxclass" : "newobj",
					"numinlets" : 1,
					"numoutlets" : 1,
					"outlettype" : [ "int" ],
					"patching_rect" : [ 11.0, 538.0, 62.0, 22.0 ],
					"text" : "midiflush"
				}

			}
, 			{
				"box" : 				{
					"fontname" : "Arial",
					"fontsize" : 13.0,
					"id" : "obj-29",
					"maxclass" : "newobj",
					"numinlets" : 1,
					"numoutlets" : 0,
					"patching_rect" : [ 11.0, 580.0, 55.0, 23.0 ],
					"text" : "midiout"
				}

			}
, 			{
				"box" : 				{
					"id" : "obj-23",
					"maxclass" : "newobj",
					"numinlets" : 1,
					"numoutlets" : 1,
					"outlettype" : [ "" ],
					"patching_rect" : [ 37.0, 424.0, 80.0, 22.0 ],
					"text" : "prepend read"
				}

			}
, 			{
				"box" : 				{
					"id" : "obj-21",
					"maxclass" : "newobj",
					"numinlets" : 1,
					"numoutlets" : 3,
					"outlettype" : [ "int", "bang", "" ],
					"patching_rect" : [ 11.0, 497.0, 151.0, 22.0 ],
					"text" : "seq"
				}

			}
, 			{
				"box" : 				{
					"id" : "obj-24",
					"maxclass" : "message",
					"numinlets" : 2,
					"numoutlets" : 1,
					"outlettype" : [ "" ],
					"patching_rect" : [ 61.0, 460.0, 50.0, 22.0 ],
					"text" : "start"
				}

			}
, 			{
				"box" : 				{
					"id" : "obj-1",
					"maxclass" : "newobj",
					"numinlets" : 1,
					"numoutlets" : 2,
					"outlettype" : [ "", "" ],
					"patching_rect" : [ 11.0, 337.0, 151.0, 22.0 ],
					"text" : "basic-pitch @preprocess 0"
				}

			}
, 			{
				"box" : 				{
					"id" : "obj-7",
					"maxclass" : "dropfile",
					"numinlets" : 1,
					"numoutlets" : 2,
					"outlettype" : [ "", "" ],
					"patching_rect" : [ 11.0, 121.0, 266.0, 154.0 ]
				}

			}
 ],
		"lines" : [ 			{
				"patchline" : 				{
					"destination" : [ "obj-25", 0 ],
					"source" : [ "obj-1", 0 ]
				}

			}
, 			{
				"patchline" : 				{
					"destination" : [ "obj-1", 0 ],
					"source" : [ "obj-11", 0 ]
				}

			}
, 			{
				"patchline" : 				{
					"destination" : [ "obj-5", 0 ],
					"source" : [ "obj-21", 0 ]
				}

			}
, 			{
				"patchline" : 				{
					"destination" : [ "obj-21", 0 ],
					"source" : [ "obj-23", 0 ]
				}

			}
, 			{
				"patchline" : 				{
					"destination" : [ "obj-21", 0 ],
					"source" : [ "obj-24", 0 ]
				}

			}
, 			{
				"patchline" : 				{
					"destination" : [ "obj-21", 0 ],
					"source" : [ "obj-25", 0 ]
				}

			}
, 			{
				"patchline" : 				{
					"destination" : [ "obj-23", 0 ],
					"source" : [ "obj-25", 1 ]
				}

			}
, 			{
				"patchline" : 				{
					"destination" : [ "obj-1", 0 ],
					"source" : [ "obj-33", 0 ]
				}

			}
, 			{
				"patchline" : 				{
					"destination" : [ "obj-21", 0 ],
					"source" : [ "obj-34", 0 ]
				}

			}
, 			{
				"patchline" : 				{
					"destination" : [ "obj-33", 0 ],
					"source" : [ "obj-35", 0 ]
				}

			}
, 			{
				"patchline" : 				{
					"destination" : [ "obj-56", 0 ],
					"source" : [ "obj-39", 0 ]
				}

			}
, 			{
				"patchline" : 				{
					"destination" : [ "obj-58", 1 ],
					"source" : [ "obj-39", 1 ]
				}

			}
, 			{
				"patchline" : 				{
					"destination" : [ "obj-42", 0 ],
					"source" : [ "obj-47", 0 ]
				}

			}
, 			{
				"patchline" : 				{
					"destination" : [ "obj-47", 0 ],
					"source" : [ "obj-48", 0 ]
				}

			}
, 			{
				"patchline" : 				{
					"destination" : [ "obj-29", 0 ],
					"source" : [ "obj-5", 0 ]
				}

			}
, 			{
				"patchline" : 				{
					"destination" : [ "obj-39", 0 ],
					"source" : [ "obj-52", 0 ]
				}

			}
, 			{
				"patchline" : 				{
					"destination" : [ "obj-11", 0 ],
					"source" : [ "obj-7", 0 ]
				}

			}
 ],
		"originid" : "pat-25",
		"dependency_cache" : [ 			{
				"name" : "basic-pitch-n4m.js",
				"bootpath" : "~/Documents/Max 9/Projects/basic-pitch-n4m",
				"patcherrelativepath" : "..",
				"type" : "TEXT",
				"implicit" : 1
			}
, 			{
				"name" : "basic-pitch.maxpat",
				"bootpath" : "~/Documents/Max 9/Projects/basic-pitch-n4m/patchers",
				"patcherrelativepath" : ".",
				"type" : "JSON",
				"implicit" : 1
			}
, 			{
				"name" : "helpdetails.js",
				"bootpath" : "C74:/help/resources",
				"type" : "TEXT",
				"implicit" : 1
			}
 ],
		"autosave" : 0
	}

}
